HIERARCHY
ROOT mixamorig_Hips
{
	OFFSET 0.000000 0.890477 -0.000138
	CHANNELS 6 Xposition Yposition Zposition Xrotation Yrotation Zrotation
	JOINT mixamorig_RightUpLeg
	{
		OFFSET -8.224193 -6.337456 -1.245509
		CHANNELS 3 Xrotation Yrotation Zrotation
		JOINT mixamorig_RightLeg
		{
			OFFSET -0.853740 -41.205795 -1.113445
			CHANNELS 3 Xrotation Yrotation Zrotation
			JOINT mixamorig_RightFoot
			{
				OFFSET 0.305346 -37.074059 5.547482
				CHANNELS 3 Xrotation Yrotation Zrotation
				JOINT mixamorig_RightToeBase
				{
					OFFSET 0.275999 -7.386046 -10.162342
					CHANNELS 3 Xrotation Yrotation Zrotation
					End Site
					{
						OFFSET 1.527623 -0.641087 -9.418583
					}
				}
			}
		}
	}
	JOINT mixamorig_LeftUpLeg
	{
		OFFSET 8.238425 -6.144493 -1.530489
		CHANNELS 3 Xrotation Yrotation Zrotation
		JOINT mixamorig_LeftLeg
		{
			OFFSET 0.999181 -40.793915 0.038145
			CHANNELS 3 Xrotation Yrotation Zrotation
			JOINT mixamorig_LeftFoot
			{
				OFFSET -1.148513 -38.134243 4.265069
				CHANNELS 3 Xrotation Yrotation Zrotation
				JOINT mixamorig_LeftToeBase
				{
					OFFSET -0.465251 -6.961702 -10.249644
					CHANNELS 3 Xrotation Yrotation Zrotation
					End Site
					{
						OFFSET -0.959344 -0.686551 -9.361076
					}
				}
			}
		}
	}
	JOINT mixamorig_Spine
	{
		OFFSET -0.012521 9.659492 0.152576
		CHANNELS 3 Xrotation Yrotation Zrotation
		JOINT mixamorig_Spine1
		{
			OFFSET 0.013316 9.940590 -0.620916
			CHANNELS 3 Xrotation Yrotation Zrotation
			JOINT mixamorig_Spine2
			{
				OFFSET -0.024142 10.082199 -0.544315
				CHANNELS 3 Xrotation Yrotation Zrotation
				JOINT mixamorig_Neck
				{
					OFFSET -0.280692 18.101685 -1.792333
					CHANNELS 3 Xrotation Yrotation Zrotation
					JOINT mixamorig_Head
					{
						OFFSET -0.018573 9.067642 0.460133
						CHANNELS 3 Xrotation Yrotation Zrotation
						End Site
						{
							OFFSET 0.158257 16.422226 3.010605
						}
					}
				}
				JOINT mixamorig_RightShoulder
				{
					OFFSET -4.418977 12.360168 -1.870196
					CHANNELS 3 Xrotation Yrotation Zrotation
					JOINT mixamorig_RightArm
					{
						OFFSET -0.840364 -0.706100 9.418602
						CHANNELS 3 Xrotation Yrotation Zrotation
						JOINT mixamorig_RightForeArm
						{
							OFFSET -2.498498 0.041534 25.943676
							CHANNELS 3 Xrotation Yrotation Zrotation
							JOINT mixamorig_RightHand
							{
								OFFSET -2.575367 0.795197 26.809452
								CHANNELS 3 Xrotation Yrotation Zrotation
								JOINT mixamorig_RightHandIndex1
								{
									OFFSET 3.136251 -0.538528 8.955254
									CHANNELS 3 Xrotation Yrotation Zrotation
									JOINT mixamorig_RightHandIndex2
									{
										OFFSET 0.051750 0.018234 3.880755
										CHANNELS 3 Xrotation Yrotation Zrotation
										JOINT mixamorig_RightHandIndex3
										{
											OFFSET 0.159386 -0.111511 2.528431
											CHANNELS 3 Xrotation Yrotation Zrotation
											End Site
											{
												OFFSET -0.186133 -0.129547 2.317834
											}
										}
									}
								}
								JOINT mixamorig_RightHandThumb1
								{
									OFFSET 3.146857 -1.651413 2.139514
									CHANNELS 3 Xrotation Yrotation Zrotation
									JOINT mixamorig_RightHandThumb2
									{
										OFFSET 0.227379 -1.950211 3.563250
										CHANNELS 3 Xrotation Yrotation Zrotation
										JOINT mixamorig_RightHandThumb3
										{
											OFFSET -0.284211 -0.956070 2.684949
											CHANNELS 3 Xrotation Yrotation Zrotation
											End Site
											{
												OFFSET -0.050027 -1.039322 2.580839
											}
										}
									}
								}
								JOINT mixamorig_RightHandMiddle1
								{
									OFFSET 0.842868 0.059799 9.204017
									CHANNELS 3 Xrotation Yrotation Zrotation
									JOINT mixamorig_RightHandMiddle2
									{
										OFFSET 0.007599 0.118408 3.598334
										CHANNELS 3 Xrotation Yrotation Zrotation
										JOINT mixamorig_RightHandMiddle3
										{
											OFFSET -0.157197 -0.125458 2.928855
											CHANNELS 3 Xrotation Yrotation Zrotation
											End Site
											{
												OFFSET 0.172696 -0.014359 2.626183
											}
										}
									}
								}
								JOINT mixamorig_RightHandRing1
								{
									OFFSET -1.001290 0.004471 8.712891
									CHANNELS 3 Xrotation Yrotation Zrotation
									JOINT mixamorig_RightHandRing2
									{
										OFFSET -0.114342 0.268219 2.619466
										CHANNELS 3 Xrotation Yrotation Zrotation
										JOINT mixamorig_RightHandRing3
										{
											OFFSET 0.155752 0.013962 2.934787
											CHANNELS 3 Xrotation Yrotation Zrotation
											End Site
											{
												OFFSET -0.022682 -0.334305 2.395091
											}
										}
									}
								}
								JOINT mixamorig_RightHandPinky1
								{
									OFFSET -2.870745 -0.520309 8.239086
									CHANNELS 3 Xrotation Yrotation Zrotation
									JOINT mixamorig_RightHandPinky2
									{
										OFFSET -0.064124 0.097565 3.353874
										CHANNELS 3 Xrotation Yrotation Zrotation
										JOINT mixamorig_RightHandPinky3
										{
											OFFSET 0.054191 -0.056305 1.657426
											CHANNELS 3 Xrotation Yrotation Zrotation
											End Site
											{
												OFFSET 0.034473 0.045517 1.902615
											}
										}
									}
								}
							}
						}
					}
				}
				JOINT mixamorig_LeftShoulder
				{
					OFFSET 4.067368 12.365417 -1.818083
					CHANNELS 3 Xrotation Yrotation Zrotation
					JOINT mixamorig_LeftArm
					{
						OFFSET 0.880652 -0.717896 9.769979
						CHANNELS 3 Xrotation Yrotation Zrotation
						JOINT mixamorig_LeftForeArm
						{
							OFFSET 2.551281 -0.093887 25.986422
							CHANNELS 3 Xrotation Yrotation Zrotation
							JOINT mixamorig_LeftHand
							{
								OFFSET 2.550158 0.834869 25.953165
								CHANNELS 3 Xrotation Yrotation Zrotation
								JOINT mixamorig_LeftHandIndex1
								{
									OFFSET -3.091449 -0.508453 8.774550
									CHANNELS 3 Xrotation Yrotation Zrotation
									JOINT mixamorig_LeftHandIndex2
									{
										OFFSET 0.036697 0.078873 3.768008
										CHANNELS 3 Xrotation Yrotation Zrotation
										JOINT mixamorig_LeftHandIndex3
										{
											OFFSET -0.146443 -0.119202 2.548758
											CHANNELS 3 Xrotation Yrotation Zrotation
											End Site
											{
												OFFSET 0.171421 0.029297 2.617404
											}
										}
									}
								}
								JOINT mixamorig_LeftHandThumb1
								{
									OFFSET -3.148789 -1.646713 2.206965
									CHANNELS 3 Xrotation Yrotation Zrotation
									JOINT mixamorig_LeftHandThumb2
									{
										OFFSET 0.080562 -1.997971 3.556270
										CHANNELS 3 Xrotation Yrotation Zrotation
										JOINT mixamorig_LeftHandThumb3
										{
											OFFSET 0.511188 -1.178329 2.869402
											CHANNELS 3 Xrotation Yrotation Zrotation
											End Site
											{
												OFFSET -0.395684 -1.027771 2.132432
											}
										}
									}
								}
								JOINT mixamorig_LeftHandMiddle1
								{
									OFFSET -0.779669 -0.015396 9.112029
									CHANNELS 3 Xrotation Yrotation Zrotation
									JOINT mixamorig_LeftHandMiddle2
									{
										OFFSET 0.052194 -0.112549 3.389368
										CHANNELS 3 Xrotation Yrotation Zrotation
										JOINT mixamorig_LeftHandMiddle3
										{
											OFFSET 0.178288 -0.162537 3.259809
											CHANNELS 3 Xrotation Yrotation Zrotation
											End Site
											{
												OFFSET -0.168278 0.311600 2.538658
											}
										}
									}
								}
								JOINT mixamorig_LeftHandRing1
								{
									OFFSET 1.087882 0.018982 8.604859
									CHANNELS 3 Xrotation Yrotation Zrotation
									JOINT mixamorig_LeftHandRing2
									{
										OFFSET 0.149309 0.141083 2.758817
										CHANNELS 3 Xrotation Yrotation Zrotation
										JOINT mixamorig_LeftHandRing3
										{
											OFFSET -0.068528 -0.036240 2.975783
											CHANNELS 3 Xrotation Yrotation Zrotation
											End Site
											{
												OFFSET -0.030775 -0.086090 2.514544
											}
										}
									}
								}
								JOINT mixamorig_LeftHandPinky1
								{
									OFFSET 2.960986 -0.570038 8.064888
									CHANNELS 3 Xrotation Yrotation Zrotation
									JOINT mixamorig_LeftHandPinky2
									{
										OFFSET 0.094121 0.094238 2.893586
										CHANNELS 3 Xrotation Yrotation Zrotation
										JOINT mixamorig_LeftHandPinky3
										{
											OFFSET -0.031188 0.050095 1.974020
											CHANNELS 3 Xrotation Yrotation Zrotation
											End Site
											{
												OFFSET -0.027014 0.187729 1.913422
											}
										}
									}
								}
							}
						}
					}
				}
			}
		}
	}
}
MOTION
Frames: 7
Frame Time: 0.03333333333333333
-7.129944 -4.307584 0.267207 0.000000 0.890477 -0.000138 -172.112481 83.052081 170.465616 -16.876975 70.718244 19.251003 1.559793 11.278043 4.123493 -1.563260 4.140655 0.564044 -0.522763 7.118978 -2.587640 -174.353150 -22.922179 177.093833 3.532002 -38.861717 -2.214396 -1.114487 -0.467463 3.602148 1.314494 1.844235 -0.731277 5.349808 -2.139399 -2.361907 3.046007 1.453322 -0.472835 1.589485 2.107699 0.694905 3.991961 1.763818 0.825392 18.080852 -69.177921 22.530910 45.742912 7.071993 -19.204252 170.245726 62.074018 126.404600 -8.712823 -14.912454 27.063871 2.525015 5.739301 2.209462 0.075770 -2.666202 4.988025 10.857564 0.191932 -4.854315 -14.188122 10.349724 54.821875 -10.107224 -21.605512 -39.104032 77.336182 -82.957665 22.762674 6.027845 7.726656 5.175374 1.394648 0.254701 -2.480306 1.986066 0.734600 -0.682828 64.965384 4.846009 30.558250 76.535553 0.216235 7.863142 -2.152308 4.140013 -0.724870 95.949218 14.502603 27.327341 22.784603 8.252728 1.885447 5.152298 2.058511 1.233189 -13.393384 86.907777 18.389812 71.326655 -24.876768 37.781135 -140.864993 -53.432737 131.581111 -40.576510 -0.459059 -6.037485 7.656763 4.766431 0.830595 1.251476 1.612058 0.670183 13.889648 -4.956535 1.990730 -5.797759 -29.888649 -24.987190 16.222677 -4.122632 31.885626 -9.767263 25.641828 -1.544888 4.061077 1.291785 -12.344315 8.199065 -0.824285 6.150999 21.663495 2.713626 0.764747 6.990174 0.835517 0.522944 0.784538 -3.417083 3.233446 14.400506 -0.194787 -1.027464 -6.296186 0.965365 -0.864635 7.329265 1.955644 -0.545052 12.124299 -1.503385 4.310629 
-7.129944 -4.307584 0.267207 0.000000 0.890477 -0.000138 -172.112481 83.052081 170.465616 -17.027968 70.726424 19.334721 1.529230 11.263371 4.130137 -1.560620 4.167127 0.560659 -0.522763 7.118978 -2.587640 -174.329910 -22.934603 177.123524 3.547400 -38.854197 -2.196766 -1.113130 -0.476627 3.638171 1.343061 1.887045 -0.745240 5.349808 -2.139399 -2.361907 3.116267 1.504870 -0.528496 1.571322 2.082609 0.680094 3.906261 1.905053 0.893231 18.103039 -69.345125 22.494469 45.534452 7.022308 -19.214484 171.533297 59.385469 131.406746 -7.036783 -14.666038 26.006153 2.628703 5.750746 2.170114 0.076143 -2.757425 4.895775 10.831289 0.126648 -4.838793 -14.188122 10.349724 54.821875 -10.107224 -21.605512 -39.104032 75.972172 -82.859610 21.492971 6.127106 7.710931 5.039322 1.394648 0.254701 -2.480306 2.011391 0.779813 -0.699037 64.965384 4.846009 30.558250 72.995057 -0.204277 7.569220 -2.152308 4.140013 -0.724870 95.949218 14.502603 27.327341 19.933958 7.514163 1.987830 5.152298 2.058511 1.233189 -13.393384 86.907777 18.389812 70.833678 -24.840426 37.734935 -140.864993 -53.432737 131.581111 -39.127339 -0.522431 -6.620533 7.752182 4.548274 0.911584 1.251476 1.612058 0.670183 13.889648 -4.956535 1.990730 -6.441714 -29.118504 -25.766139 15.620637 -4.066523 31.658715 -9.767263 25.641828 -1.544888 4.080670 1.109453 -12.291222 8.199065 -0.824285 6.150999 21.663495 2.713626 0.764747 7.045171 0.741899 0.590600 0.784538 -3.417083 3.233446 14.400506 -0.194787 -1.027464 -6.035145 0.904243 -0.853113 7.243140 1.910135 -0.558276 12.124299 -1.503385 4.310629 
-7.129944 -4.307584 0.267207 0.000000 0.890477 -0.000138 -172.112481 83.052081 170.465616 -16.998337 70.716767 19.301148 1.539135 11.265298 4.116303 -1.569033 4.168834 0.559068 -0.522763 7.118978 -2.587640 -174.316950 -22.954870 177.145391 3.556458 -38.855610 -2.196655 -1.107469 -0.468187 3.624279 1.334509 1.895913 -0.740198 5.349808 -2.139399 -2.361907 3.186573 1.556346 -0.584218 1.553151 2.057524 0.665274 3.820390 2.046191 0.961291 18.125079 -69.512248 22.457912 45.325852 6.972629 -19.224829 173.151481 56.759789 136.158734 -5.357711 -14.449716 24.942197 2.732402 5.762119 2.130743 0.076368 -2.848648 4.803520 10.805029 0.061356 -4.823301 -14.188122 10.349724 54.821875 -9.194972 -19.033587 -36.561845 68.193361 -81.974967 14.294880 6.226325 7.694974 4.903304 1.394648 0.254701 -2.480306 2.036728 0.825019 -0.715267 60.415973 4.024492 28.250891 65.782651 -0.999827 6.893749 -2.152308 4.140013 -0.724870 87.591245 11.687406 25.884916 17.089340 6.771504 2.052956 5.152298 2.058511 1.233189 -13.393384 86.907777 18.389812 69.967113 -24.775526 37.654439 -140.864993 -53.432737 131.581111 -36.707933 -0.661092 -7.590469 7.859406 4.304061 1.002711 1.251476 1.612058 0.670183 13.889648 -4.956535 1.990730 -7.143247 -28.246956 -26.620180 15.018851 -4.008019 31.432437 -9.767263 25.641828 -1.544888 4.102818 0.905235 -12.231688 8.199065 -0.824285 6.150999 21.663495 2.713626 0.764747 7.106906 0.637106 0.666493 0.784538 -3.417083 3.233446 14.400506 -0.194787 -1.027464 -5.742708 0.835836 -0.839875 7.157015 1.864649 -0.571567 12.124299 -1.503385 4.310629 
-7.129944 -4.307584 0.267207 0.000000 0.890477 -0.000138 -172.112481 83.052081 170.465616 -16.941541 70.708648 19.259225 1.556696 11.276790 4.100079 -1.571872 4.151736 0.541311 -0.522763 7.118978 -2.587640 -174.307995 -22.966896 177.154917 3.547481 -38.865445 -2.209436 -1.097599 -0.443800 3.605192 1.317173 1.906412 -0.728666 5.349808 -2.139399 -2.361907 3.256924 1.607749 -0.640002 1.534975 2.032442 0.650447 3.734345 2.187232 1.029570 18.146970 -69.679287 22.421235 45.117113 6.922959 -19.235287 175.033622 54.212120 140.733614 -3.675937 -14.263723 23.872764 2.836111 5.773419 2.091351 0.076447 -2.939871 4.711259 10.778783 -0.003944 -4.807837 -14.188122 10.349724 54.821875 -8.234958 -15.746116 -33.472510 38.872160 -71.505898 -9.854699 6.325501 7.678783 4.767320 1.394648 0.254701 -2.480306 2.062079 0.870218 -0.731516 54.653751 3.254953 25.268525 58.559279 -1.704163 6.123426 -2.152308 4.140013 -0.724870 78.966095 9.027323 23.990290 14.249775 6.026582 2.080867 5.152298 2.058511 1.233189 -13.393384 86.907777 18.389812 69.100828 -24.709366 37.574899 -140.864993 -53.432737 131.581111 -34.291309 -0.840516 -8.553702 7.966987 4.060023 1.094267 1.251476 1.612058 0.670183 13.889648 -4.956535 1.990730 -7.824439 -27.366452 -27.455290 14.417327 -3.947127 31.206816 -9.767263 25.641828 -1.544888 4.125179 0.701046 -12.172090 8.199065 -0.824285 6.150999 21.663495 2.713626 0.764747 7.168775 0.532394 0.742498 0.784538 -3.417083 3.233446 14.400506 -0.194787 -1.027464 -5.450247 0.767495 -0.826286 7.070890 1.819186 -0.584927 12.124299 -1.503385 4.310629 
-7.129944 -4.307584 0.267207 0.000000 0.890477 -0.000138 -172.112481 83.052081 170.465616 -17.073406 70.716719 19.376034 1.547770 11.306584 4.072282 -1.551871 4.155095 0.508653 -0.522763 7.118978 -2.587640 -174.313339 -22.950629 177.138187 3.525789 -38.873024 -2.211876 -1.073528 -0.426864 3.621925 1.332704 1.929754 -0.740139 5.349808 -2.139399 -2.361907 3.327321 1.659079 -0.695847 1.516792 2.007366 0.635611 3.648127 2.328175 1.098071 18.168709 -69.846241 22.384434 44.908234 6.873299 -19.245859 177.132650 51.756088 145.183967 -1.991806 -14.108263 22.798627 2.939831 5.784648 2.051936 0.076379 -3.031093 4.618992 10.752553 -0.069253 -4.792401 -14.188122 10.349724 54.821875 -7.471668 -12.413584 -30.483451 29.127251 -60.043913 -14.286203 6.424636 7.662361 4.631371 1.394648 0.254701 -2.480306 2.087442 0.915409 -0.747786 48.862594 2.788990 22.225577 51.324217 -2.305940 5.270218 -2.152308 4.140013 -0.724870 70.309331 6.677414 21.726538 11.414278 5.281223 2.071667 5.152298 2.058511 1.233189 -13.393384 86.907777 18.389812 68.234827 -24.641963 37.496332 -140.864993 -53.432737 131.581111 -31.878082 -1.060337 -9.508554 8.074930 3.816161 1.186255 1.251476 1.612058 0.670183 13.889648 -4.956535 1.990730 -8.485898 -26.477373 -28.272130 13.816075 -3.883856 30.981876 -9.767263 25.641828 -1.544888 4.147752 0.496888 -12.112425 8.199065 -0.824285 6.150999 21.663495 2.713626 0.764747 7.230780 0.427763 0.818614 0.784538 -3.417083 3.233446 14.400506 -0.194787 -1.027464 -5.157762 0.699222 -0.812347 6.984765 1.773745 -0.598355 12.124299 -1.503385 4.310629 
-7.129944 -4.307584 0.267207 0.000000 0.890477 -0.000138 -172.112481 83.052081 170.465616 -17.045218 70.717986 19.364391 1.567855 11.320198 4.043328 -1.549740 4.149395 0.502813 -0.522763 7.118978 -2.587640 -174.314930 -22.956713 177.144301 3.514209 -38.874508 -2.225340 -1.065179 -0.407458 3.596353 1.327540 1.922260 -0.745468 5.349808 -2.139399 -2.361907 3.397762 1.710336 -0.751754 1.498602 1.982293 0.620768 3.561734 2.469021 1.166794 18.190291 -70.013107 22.347506 44.699217 6.823649 -19.256544 179.414374 49.404322 149.548492 -0.305684 -13.983506 21.720568 3.043561 5.795803 2.012499 0.076164 -3.122316 4.526718 10.726337 -0.134569 -4.776995 -14.188122 10.349724 54.821875 -6.893819 -9.046506 -27.571606 23.117683 -48.459749 -14.698100 6.523727 7.645706 4.495457 1.394648 0.254701 -2.480306 2.112819 0.960593 -0.764076 43.056352 2.632523 19.151871 44.077825 -2.795396 4.347514 -2.152308 4.140013 -0.724870 61.599010 4.693009 19.142006 8.581858 4.537245 2.025518 5.152298 2.058511 1.233189 -13.393384 86.907777 18.389812 67.369117 -24.573333 37.418756 -140.864993 -53.432737 131.581111 -29.468822 -1.320109 -10.453382 8.183238 3.572477 1.278678 1.251476 1.612058 0.670183 13.889648 -4.956535 1.990730 -9.128217 -25.580085 -29.071349 13.215102 -3.818212 30.757642 -9.767263 25.641828 -1.544888 4.170539 0.292759 -12.052694 8.199065 -0.824285 6.150999 21.663495 2.713626 0.764747 7.292921 0.323214 0.894843 0.784538 -3.417083 3.233446 14.400506 -0.194787 -1.027464 -4.865251 0.631019 -0.798058 6.898639 1.728327 -0.611851 12.124299 -1.503385 4.310629 
-7.129944 -4.307584 0.267207 0.000000 0.890477 -0.000138 -172.112481 83.052081 170.465616 -16.884257 70.702613 19.243282 1.600677 11.336497 4.018039 -1.547521 4.140112 0.494149 -0.522763 7.118978 -2.587640 -174.317059 -22.991650 177.152193 3.511644 -38.878142 -2.246432 -1.073838 -0.382698 3.550997 1.314877 1.901232 -0.740382 5.349808 -2.139399 -2.361907 3.468249 1.761520 -0.807721 1.480406 1.957226 0.605916 3.475164 2.609769 1.235740 18.211713 -70.179883 22.310447 44.490061 6.774011 -19.267342 -178.146790 47.168752 153.856130 1.382050 -13.889588 20.639379 3.147301 5.806887 1.973040 0.075801 -3.213537 4.434437 10.700136 -0.199893 -4.761617 -14.188122 10.349724 54.821875 -6.492942 -5.654501 -24.715249 18.240589 -36.908540 -13.534669 6.622774 7.628819 4.359578 1.394648 0.254701 -2.480306 2.138209 1.005770 -0.780386 37.250044 2.787559 16.078069 36.821487 -3.164536 3.369948 -2.152308 4.140013 -0.724870 52.826608 3.122536 16.291693 5.751526 3.796459 1.942640 5.152298 2.058511 1.233189 -13.393384 86.907777 18.389812 66.503703 -24.503493 37.342187 -140.864993 -53.432737 131.581111 -27.064049 -1.619308 -11.386573 8.291915 3.328971 1.371538 1.251476 1.612058 0.670183 13.889648 -4.956535 1.990730 -9.751976 -24.674936 -29.853580 12.614418 -3.750206 30.534138 -9.767263 25.641828 -1.544888 4.193540 0.088660 -11.992892 8.199065 -0.824285 6.150999 21.663495 2.713626 0.764747 7.355198 0.218747 0.971185 0.784538 -3.417083 3.233446 14.400506 -0.194787 -1.027464 -4.572716 0.562887 -0.783420 6.812513 1.682932 -0.625415 12.124299 -1.503385 4.310629 
